<svg xmlns="http://www.w3.org/2000/svg" viewBox="0 0 400 400" width="400" height="400">
  <defs>
    <clipPath id="circleClip">
      <circle cx="200" cy="200" r="200"/>
    </clipPath>
  </defs>
  
  <g clip-path="url(#circleClip)">
    <rect width="400" height="400" fill="#f5f5f0"/>
    
    <!-- Left eye -->
    <path d="M 18 160 L 195 160 Q 195 265 106 265 Q 18 265 18 160 Z" 
          fill="#fff" stroke="#2a2a2a" stroke-width="7" stroke-linejoin="round"/>
    
    <!-- Right eye -->
    <path d="M 205 160 L 382 160 Q 382 265 293 265 Q 205 265 205 160 Z" 
          fill="#fff" stroke="#2a2a2a" stroke-width="7" stroke-linejoin="round"/>
    
    <!-- Left pupil -->
    <circle cx="106" cy="210" r="20" fill="#2a2a2a"/>
    <circle cx="99" cy="202" r="6" fill="#fff" opacity="0.7"/>
    
    <!-- Right pupil -->
    <circle cx="293" cy="210" r="20" fill="#2a2a2a"/>
    <circle cx="286" cy="202" r="6" fill="#fff" opacity="0.7"/>
    
    <!-- Subtle smile -->
    <path d="M 145 290 Q 200 310 255 290" fill="none" stroke="#2a2a2a" stroke-width="3" stroke-linecap="round"/>
    
    <!-- Lightbulb - ON -->
    <g transform="translate(200, 95)">
      <circle cx="0" cy="0" r="35" fill="#ffdd44" opacity="0.2"/>
      <circle cx="0" cy="0" r="22" fill="#ffdd44" opacity="0.3"/>
      <path d="M -12 6 Q -14 -12 0 -22 Q 14 -12 12 6 Z" fill="#fff8cc" stroke="#2a2a2a" stroke-width="2.5"/>
      <path d="M -3 0 L 0 -10 L 3 0" fill="none" stroke="#e8a000" stroke-width="1.5"/>
      <rect x="-8" y="6" width="16" height="9" rx="2" fill="#aaa" stroke="#2a2a2a" stroke-width="2"/>
      <line x1="-8" y1="10" x2="8" y2="10" stroke="#2a2a2a" stroke-width="1.5"/>
      <line x1="0" y1="-32" x2="0" y2="-26" stroke="#ffaa00" stroke-width="2" stroke-linecap="round"/>
      <line x1="20" y1="-20" x2="16" y2="-16" stroke="#ffaa00" stroke-width="2" stroke-linecap="round"/>
      <line x1="-20" y1="-20" x2="-16" y2="-16" stroke="#ffaa00" stroke-width="2" stroke-linecap="round"/>
      <line x1="24" y1="-2" x2="18" y2="-1" stroke="#ffaa00" stroke-width="2" stroke-linecap="round"/>
      <line x1="-24" y1="-2" x2="-18" y2="-1" stroke="#ffaa00" stroke-width="2" stroke-linecap="round"/>
      <line x1="18" y1="12" x2="14" y2="9" stroke="#ffaa00" stroke-width="2" stroke-linecap="round"/>
      <line x1="-18" y1="12" x2="-14" y2="9" stroke="#ffaa00" stroke-width="2" stroke-linecap="round"/>
    </g>
  </g>
  
  <circle cx="200" cy="200" r="198" fill="none" stroke="#2a2a2a" stroke-width="4"/>
</svg>
